# xmcd
#
# Track frame offsets: 
#        150
#        10537
#        26302
#        41387
#        54402
#        65542
#        74547
#        92552
#        102685
#        119820
#        135485
#        153227
#        166842
#        176832
#        186470
#        202822
#        214467
#        224637
#
# Disc length: 3170 seconds
#
# Revision: 6
# Processed by: cddbd v1.5.2PL0 Copyright (c) Steve Scherf et al.
# Submitted via: ExactAudioCopy v0.95b3
#
DISCID=080c6012
DTITLE=Ralph Stanley - Clinch Mountain Country [CD2]
DYEAR=1998
DGENRE=Country
TTITLE0=Pig In A Pen (with Doug Phelps)
TTITLE1=I Only Exist (with John Anderson)
TTITLE2=A Lonesome Night (with Vince Gill and Patty Loveless)
TTITLE3=Pretty Little Miss In The Garden (with Alison Krauss)
TTITLE4=The Darkest Hour Is Just Before Dawn (with Dwight Yoakam)
TTITLE5=Stone Walls And Steel Bars (with Junior Brown)
TTITLE6=Beautiful Star Of Bethlehem (with Connie Smith)
TTITLE7=Let Me Love You One More Time (with Tim O'Brien)
TTITLE8=The White Dove (with Porter Wagoner)
TTITLE9=Will You Ever Miss Me At All (with Joe and Sonya Isaacs)
TTITLE10=Lonesome Banjo Man (with Ralph Stanley II)
TTITLE11=Are You Afraid To Die (Sonya and Becky Isaacs)
TTITLE12=Way Down Deep (with Vern Gosdin
TTITLE13=If I Lose (with Jim Lauderdale)
TTITLE14=I'm Going That Way (with The Whites)
TTITLE15=Gathering Flowers For The Master's Bouquet (with BR5-49)
TTITLE16=My Deceitful Heart (with Ralph Stanley II)
TTITLE17=Bright Morning Star (with Kathy Matthea)
EXTD=
EXTT0=
EXTT1=
EXTT2=
EXTT3=
EXTT4=
EXTT5=
EXTT6=
EXTT7=
EXTT8=
EXTT9=
EXTT10=
EXTT11=
EXTT12=
EXTT13=
EXTT14=
EXTT15=
EXTT16=
EXTT17=
PLAYORDER=
